<mxfile host="app.diagrams.net" agent="Mozilla/5.0 (X11; Linux x86_64) AppleWebKit/537.36 (KHTML, like Gecko) Chrome/129.0.0.0 Safari/537.36" version="24.7.17" pages="3">
  <diagram name="Крок 1" id="FtQ5G_brYQdXmrqNB-fE">
    <mxGraphModel grid="1" page="1" gridSize="10" guides="1" tooltips="1" connect="1" arrows="1" fold="1" pageScale="1" pageWidth="850" pageHeight="1100" math="1" shadow="0">
      <root>
        <mxCell id="0" />
        <mxCell id="1" parent="0" />
        <mxCell id="GNYNWJ6c93ldfytHBEB5-10" style="edgeStyle=orthogonalEdgeStyle;rounded=0;orthogonalLoop=1;jettySize=auto;html=1;exitX=0.5;exitY=1;exitDx=0;exitDy=0;entryX=0.5;entryY=0;entryDx=0;entryDy=0;" edge="1" parent="1" source="GNYNWJ6c93ldfytHBEB5-6" target="GNYNWJ6c93ldfytHBEB5-9">
          <mxGeometry relative="1" as="geometry" />
        </mxCell>
        <mxCell id="GNYNWJ6c93ldfytHBEB5-6" value="&lt;b&gt;Початок&lt;/b&gt;" style="rounded=1;whiteSpace=wrap;html=1;arcSize=50;" vertex="1" parent="1">
          <mxGeometry x="430" y="90" width="120" height="60" as="geometry" />
        </mxCell>
        <mxCell id="GNYNWJ6c93ldfytHBEB5-12" value="" style="edgeStyle=orthogonalEdgeStyle;rounded=0;orthogonalLoop=1;jettySize=auto;html=1;" edge="1" parent="1" source="GNYNWJ6c93ldfytHBEB5-9" target="GNYNWJ6c93ldfytHBEB5-11">
          <mxGeometry relative="1" as="geometry" />
        </mxCell>
        <mxCell id="GNYNWJ6c93ldfytHBEB5-9" value="&lt;b&gt;Ввід&lt;/b&gt; `x`" style="shape=parallelogram;perimeter=parallelogramPerimeter;whiteSpace=wrap;html=1;fixedSize=1;" vertex="1" parent="1">
          <mxGeometry x="430" y="230" width="120" height="60" as="geometry" />
        </mxCell>
        <mxCell id="GNYNWJ6c93ldfytHBEB5-14" value="" style="edgeStyle=orthogonalEdgeStyle;rounded=0;orthogonalLoop=1;jettySize=auto;html=1;" edge="1" parent="1" source="GNYNWJ6c93ldfytHBEB5-11" target="GNYNWJ6c93ldfytHBEB5-13">
          <mxGeometry relative="1" as="geometry" />
        </mxCell>
        <mxCell id="GNYNWJ6c93ldfytHBEB5-11" value="&lt;b&gt;Ввід&lt;/b&gt; `\varepsilon`" style="shape=parallelogram;perimeter=parallelogramPerimeter;whiteSpace=wrap;html=1;fixedSize=1;" vertex="1" parent="1">
          <mxGeometry x="430" y="370" width="120" height="60" as="geometry" />
        </mxCell>
        <mxCell id="GNYNWJ6c93ldfytHBEB5-16" value="" style="edgeStyle=orthogonalEdgeStyle;rounded=0;orthogonalLoop=1;jettySize=auto;html=1;" edge="1" parent="1" source="GNYNWJ6c93ldfytHBEB5-13" target="GNYNWJ6c93ldfytHBEB5-15">
          <mxGeometry relative="1" as="geometry" />
        </mxCell>
        <mxCell id="GNYNWJ6c93ldfytHBEB5-13" value="&lt;u&gt;Встановити початкові значення змінним&lt;/u&gt; `res` та `cur`" style="whiteSpace=wrap;html=1;fontStyle=0" vertex="1" parent="1">
          <mxGeometry x="430" y="510" width="120" height="60" as="geometry" />
        </mxCell>
        <mxCell id="GNYNWJ6c93ldfytHBEB5-18" style="edgeStyle=orthogonalEdgeStyle;rounded=0;orthogonalLoop=1;jettySize=auto;html=1;exitX=0.5;exitY=1;exitDx=0;exitDy=0;entryX=0.5;entryY=0;entryDx=0;entryDy=0;" edge="1" parent="1" source="GNYNWJ6c93ldfytHBEB5-15" target="GNYNWJ6c93ldfytHBEB5-17">
          <mxGeometry relative="1" as="geometry" />
        </mxCell>
        <mxCell id="GNYNWJ6c93ldfytHBEB5-15" value="Знаходження значення `\ln(x + \sqrt{1 + x^2})`" style="whiteSpace=wrap;html=1;" vertex="1" parent="1">
          <mxGeometry x="430" y="650" width="120" height="60" as="geometry" />
        </mxCell>
        <mxCell id="GNYNWJ6c93ldfytHBEB5-23" style="edgeStyle=orthogonalEdgeStyle;rounded=0;orthogonalLoop=1;jettySize=auto;html=1;exitX=0.5;exitY=1;exitDx=0;exitDy=0;entryX=0.5;entryY=0;entryDx=0;entryDy=0;" edge="1" parent="1" source="GNYNWJ6c93ldfytHBEB5-17" target="GNYNWJ6c93ldfytHBEB5-22">
          <mxGeometry relative="1" as="geometry" />
        </mxCell>
        <mxCell id="GNYNWJ6c93ldfytHBEB5-17" value="&lt;b&gt;Вивід&lt;/b&gt; `res`" style="shape=parallelogram;perimeter=parallelogramPerimeter;whiteSpace=wrap;html=1;fixedSize=1;" vertex="1" parent="1">
          <mxGeometry x="430" y="790" width="120" height="60" as="geometry" />
        </mxCell>
        <mxCell id="GNYNWJ6c93ldfytHBEB5-22" value="&lt;b&gt;Кінець&lt;/b&gt;" style="rounded=1;whiteSpace=wrap;html=1;arcSize=50;" vertex="1" parent="1">
          <mxGeometry x="430" y="930" width="120" height="60" as="geometry" />
        </mxCell>
      </root>
    </mxGraphModel>
  </diagram>
  <diagram id="-UvsFgF_KD8XFi-b7b5a" name="Крок 2">
    <mxGraphModel grid="1" page="1" gridSize="10" guides="1" tooltips="1" connect="1" arrows="1" fold="1" pageScale="1" pageWidth="850" pageHeight="1100" math="1" shadow="0">
      <root>
        <mxCell id="0" />
        <mxCell id="1" parent="0" />
        <mxCell id="YmustVkxd78uvm_fp7u7-19" value="" style="rounded=0;whiteSpace=wrap;html=1;" vertex="1" parent="1">
          <mxGeometry x="410" y="490" width="160" height="240" as="geometry" />
        </mxCell>
        <mxCell id="YmustVkxd78uvm_fp7u7-1" style="edgeStyle=orthogonalEdgeStyle;rounded=0;orthogonalLoop=1;jettySize=auto;html=1;exitX=0.5;exitY=1;exitDx=0;exitDy=0;entryX=0.5;entryY=0;entryDx=0;entryDy=0;" edge="1" parent="1" source="YmustVkxd78uvm_fp7u7-2" target="YmustVkxd78uvm_fp7u7-4">
          <mxGeometry relative="1" as="geometry" />
        </mxCell>
        <mxCell id="YmustVkxd78uvm_fp7u7-2" value="&lt;b&gt;Початок&lt;/b&gt;" style="rounded=1;whiteSpace=wrap;html=1;arcSize=50;" vertex="1" parent="1">
          <mxGeometry x="430" y="90" width="120" height="60" as="geometry" />
        </mxCell>
        <mxCell id="YmustVkxd78uvm_fp7u7-3" value="" style="edgeStyle=orthogonalEdgeStyle;rounded=0;orthogonalLoop=1;jettySize=auto;html=1;" edge="1" parent="1" source="YmustVkxd78uvm_fp7u7-4" target="YmustVkxd78uvm_fp7u7-6">
          <mxGeometry relative="1" as="geometry" />
        </mxCell>
        <mxCell id="YmustVkxd78uvm_fp7u7-4" value="&lt;b&gt;Ввід&lt;/b&gt; `x`" style="shape=parallelogram;perimeter=parallelogramPerimeter;whiteSpace=wrap;html=1;fixedSize=1;" vertex="1" parent="1">
          <mxGeometry x="430" y="230" width="120" height="60" as="geometry" />
        </mxCell>
        <mxCell id="YmustVkxd78uvm_fp7u7-15" value="" style="edgeStyle=orthogonalEdgeStyle;rounded=0;orthogonalLoop=1;jettySize=auto;html=1;" edge="1" parent="1" source="YmustVkxd78uvm_fp7u7-6" target="YmustVkxd78uvm_fp7u7-14">
          <mxGeometry relative="1" as="geometry" />
        </mxCell>
        <mxCell id="YmustVkxd78uvm_fp7u7-6" value="&lt;b&gt;Ввід&lt;/b&gt; `\varepsilon`" style="shape=parallelogram;perimeter=parallelogramPerimeter;whiteSpace=wrap;html=1;fixedSize=1;" vertex="1" parent="1">
          <mxGeometry x="430" y="370" width="120" height="60" as="geometry" />
        </mxCell>
        <mxCell id="YmustVkxd78uvm_fp7u7-9" style="edgeStyle=orthogonalEdgeStyle;rounded=0;orthogonalLoop=1;jettySize=auto;html=1;exitX=0.5;exitY=1;exitDx=0;exitDy=0;entryX=0.5;entryY=0;entryDx=0;entryDy=0;" edge="1" parent="1" source="YmustVkxd78uvm_fp7u7-10" target="YmustVkxd78uvm_fp7u7-12">
          <mxGeometry relative="1" as="geometry" />
        </mxCell>
        <mxCell id="YmustVkxd78uvm_fp7u7-10" value="Знаходження значення `\ln(x + \sqrt{1 + x^2})`" style="whiteSpace=wrap;html=1;" vertex="1" parent="1">
          <mxGeometry x="430" y="810" width="120" height="60" as="geometry" />
        </mxCell>
        <mxCell id="YmustVkxd78uvm_fp7u7-11" style="edgeStyle=orthogonalEdgeStyle;rounded=0;orthogonalLoop=1;jettySize=auto;html=1;exitX=0.5;exitY=1;exitDx=0;exitDy=0;entryX=0.5;entryY=0;entryDx=0;entryDy=0;" edge="1" parent="1" source="YmustVkxd78uvm_fp7u7-12" target="YmustVkxd78uvm_fp7u7-13">
          <mxGeometry relative="1" as="geometry" />
        </mxCell>
        <mxCell id="YmustVkxd78uvm_fp7u7-12" value="&lt;b&gt;Вивід&lt;/b&gt; `res`" style="shape=parallelogram;perimeter=parallelogramPerimeter;whiteSpace=wrap;html=1;fixedSize=1;" vertex="1" parent="1">
          <mxGeometry x="430" y="950" width="120" height="60" as="geometry" />
        </mxCell>
        <mxCell id="YmustVkxd78uvm_fp7u7-13" value="&lt;b&gt;Кінець&lt;/b&gt;" style="rounded=1;whiteSpace=wrap;html=1;arcSize=50;" vertex="1" parent="1">
          <mxGeometry x="430" y="1090" width="120" height="60" as="geometry" />
        </mxCell>
        <mxCell id="YmustVkxd78uvm_fp7u7-18" value="" style="edgeStyle=orthogonalEdgeStyle;rounded=0;orthogonalLoop=1;jettySize=auto;html=1;" edge="1" parent="1" source="YmustVkxd78uvm_fp7u7-14" target="YmustVkxd78uvm_fp7u7-17">
          <mxGeometry relative="1" as="geometry" />
        </mxCell>
        <mxCell id="YmustVkxd78uvm_fp7u7-14" value="`res := x`" style="whiteSpace=wrap;html=1;" vertex="1" parent="1">
          <mxGeometry x="430" y="510" width="120" height="60" as="geometry" />
        </mxCell>
        <mxCell id="YmustVkxd78uvm_fp7u7-20" style="edgeStyle=orthogonalEdgeStyle;rounded=0;orthogonalLoop=1;jettySize=auto;html=1;exitX=0.5;exitY=1;exitDx=0;exitDy=0;entryX=0.5;entryY=0;entryDx=0;entryDy=0;" edge="1" parent="1" source="YmustVkxd78uvm_fp7u7-17" target="YmustVkxd78uvm_fp7u7-10">
          <mxGeometry relative="1" as="geometry" />
        </mxCell>
        <mxCell id="YmustVkxd78uvm_fp7u7-17" value="`cur := x`" style="whiteSpace=wrap;html=1;" vertex="1" parent="1">
          <mxGeometry x="430" y="650" width="120" height="60" as="geometry" />
        </mxCell>
      </root>
    </mxGraphModel>
  </diagram>
  <diagram id="2CNmG8LCmkZQ1tljuYK8" name="Крок 3">
    <mxGraphModel grid="1" page="1" gridSize="10" guides="1" tooltips="1" connect="1" arrows="1" fold="1" pageScale="1" pageWidth="850" pageHeight="1100" math="1" shadow="0">
      <root>
        <mxCell id="0" />
        <mxCell id="1" parent="0" />
        <mxCell id="45qHpqeblWO-UKgfUNLH-1" value="" style="rounded=0;whiteSpace=wrap;html=1;" vertex="1" parent="1">
          <mxGeometry x="410" y="490" width="160" height="240" as="geometry" />
        </mxCell>
        <mxCell id="45qHpqeblWO-UKgfUNLH-2" style="edgeStyle=orthogonalEdgeStyle;rounded=0;orthogonalLoop=1;jettySize=auto;html=1;exitX=0.5;exitY=1;exitDx=0;exitDy=0;entryX=0.5;entryY=0;entryDx=0;entryDy=0;" edge="1" parent="1" source="45qHpqeblWO-UKgfUNLH-3" target="45qHpqeblWO-UKgfUNLH-5">
          <mxGeometry relative="1" as="geometry" />
        </mxCell>
        <mxCell id="45qHpqeblWO-UKgfUNLH-3" value="&lt;b&gt;Початок&lt;/b&gt;" style="rounded=1;whiteSpace=wrap;html=1;arcSize=50;" vertex="1" parent="1">
          <mxGeometry x="430" y="90" width="120" height="60" as="geometry" />
        </mxCell>
        <mxCell id="45qHpqeblWO-UKgfUNLH-4" value="" style="edgeStyle=orthogonalEdgeStyle;rounded=0;orthogonalLoop=1;jettySize=auto;html=1;" edge="1" parent="1" source="45qHpqeblWO-UKgfUNLH-5" target="45qHpqeblWO-UKgfUNLH-7">
          <mxGeometry relative="1" as="geometry" />
        </mxCell>
        <mxCell id="45qHpqeblWO-UKgfUNLH-5" value="&lt;b&gt;Ввід&lt;/b&gt; `x`" style="shape=parallelogram;perimeter=parallelogramPerimeter;whiteSpace=wrap;html=1;fixedSize=1;" vertex="1" parent="1">
          <mxGeometry x="430" y="230" width="120" height="60" as="geometry" />
        </mxCell>
        <mxCell id="45qHpqeblWO-UKgfUNLH-6" value="" style="edgeStyle=orthogonalEdgeStyle;rounded=0;orthogonalLoop=1;jettySize=auto;html=1;" edge="1" parent="1" source="45qHpqeblWO-UKgfUNLH-7" target="45qHpqeblWO-UKgfUNLH-14">
          <mxGeometry relative="1" as="geometry" />
        </mxCell>
        <mxCell id="45qHpqeblWO-UKgfUNLH-7" value="&lt;b&gt;Ввід&lt;/b&gt; `\varepsilon`" style="shape=parallelogram;perimeter=parallelogramPerimeter;whiteSpace=wrap;html=1;fixedSize=1;" vertex="1" parent="1">
          <mxGeometry x="430" y="370" width="120" height="60" as="geometry" />
        </mxCell>
        <mxCell id="45qHpqeblWO-UKgfUNLH-10" style="edgeStyle=orthogonalEdgeStyle;rounded=0;orthogonalLoop=1;jettySize=auto;html=1;exitX=0.5;exitY=1;exitDx=0;exitDy=0;entryX=0.5;entryY=0;entryDx=0;entryDy=0;" edge="1" parent="1" source="45qHpqeblWO-UKgfUNLH-11" target="45qHpqeblWO-UKgfUNLH-12">
          <mxGeometry relative="1" as="geometry" />
        </mxCell>
        <mxCell id="45qHpqeblWO-UKgfUNLH-11" value="&lt;b&gt;Вивід&lt;/b&gt; `res`" style="shape=parallelogram;perimeter=parallelogramPerimeter;whiteSpace=wrap;html=1;fixedSize=1;" vertex="1" parent="1">
          <mxGeometry x="430" y="1500" width="120" height="64" as="geometry" />
        </mxCell>
        <mxCell id="45qHpqeblWO-UKgfUNLH-12" value="&lt;b&gt;Кінець&lt;/b&gt;" style="rounded=1;whiteSpace=wrap;html=1;arcSize=50;" vertex="1" parent="1">
          <mxGeometry x="430" y="1640" width="120" height="64" as="geometry" />
        </mxCell>
        <mxCell id="45qHpqeblWO-UKgfUNLH-13" value="" style="edgeStyle=orthogonalEdgeStyle;rounded=0;orthogonalLoop=1;jettySize=auto;html=1;" edge="1" parent="1" source="45qHpqeblWO-UKgfUNLH-14" target="45qHpqeblWO-UKgfUNLH-16">
          <mxGeometry relative="1" as="geometry" />
        </mxCell>
        <mxCell id="45qHpqeblWO-UKgfUNLH-14" value="`res := x`" style="whiteSpace=wrap;html=1;" vertex="1" parent="1">
          <mxGeometry x="430" y="510" width="120" height="60" as="geometry" />
        </mxCell>
        <mxCell id="45qHpqeblWO-UKgfUNLH-18" value="" style="edgeStyle=orthogonalEdgeStyle;rounded=0;orthogonalLoop=1;jettySize=auto;html=1;" edge="1" parent="1" source="45qHpqeblWO-UKgfUNLH-16" target="45qHpqeblWO-UKgfUNLH-17">
          <mxGeometry relative="1" as="geometry" />
        </mxCell>
        <mxCell id="45qHpqeblWO-UKgfUNLH-16" value="`cur := x`" style="whiteSpace=wrap;html=1;" vertex="1" parent="1">
          <mxGeometry x="430" y="650" width="120" height="60" as="geometry" />
        </mxCell>
        <mxCell id="45qHpqeblWO-UKgfUNLH-20" value="" style="edgeStyle=orthogonalEdgeStyle;rounded=0;orthogonalLoop=1;jettySize=auto;html=1;" edge="1" parent="1" source="45qHpqeblWO-UKgfUNLH-17" target="45qHpqeblWO-UKgfUNLH-19">
          <mxGeometry relative="1" as="geometry" />
        </mxCell>
        <mxCell id="45qHpqeblWO-UKgfUNLH-31" value="Так" style="edgeLabel;html=1;align=center;verticalAlign=middle;resizable=0;points=[];" connectable="0" vertex="1" parent="45qHpqeblWO-UKgfUNLH-20">
          <mxGeometry x="-0.5156" y="-1" relative="1" as="geometry">
            <mxPoint as="offset" />
          </mxGeometry>
        </mxCell>
        <mxCell id="45qHpqeblWO-UKgfUNLH-32" style="edgeStyle=orthogonalEdgeStyle;rounded=0;orthogonalLoop=1;jettySize=auto;html=1;exitX=0;exitY=0.5;exitDx=0;exitDy=0;entryX=0.5;entryY=0;entryDx=0;entryDy=0;" edge="1" parent="1" source="45qHpqeblWO-UKgfUNLH-17" target="45qHpqeblWO-UKgfUNLH-11">
          <mxGeometry relative="1" as="geometry">
            <mxPoint x="400" y="1520" as="targetPoint" />
            <Array as="points">
              <mxPoint x="370" y="830" />
              <mxPoint x="370" y="1480" />
              <mxPoint x="490" y="1480" />
            </Array>
          </mxGeometry>
        </mxCell>
        <mxCell id="45qHpqeblWO-UKgfUNLH-33" value="Ні" style="edgeLabel;html=1;align=center;verticalAlign=middle;resizable=0;points=[];" connectable="0" vertex="1" parent="45qHpqeblWO-UKgfUNLH-32">
          <mxGeometry x="-0.9241" y="-1" relative="1" as="geometry">
            <mxPoint as="offset" />
          </mxGeometry>
        </mxCell>
        <mxCell id="45qHpqeblWO-UKgfUNLH-17" value="&lt;b&gt;Поки `|cur| &amp;gt; \varepsilon`&lt;/b&gt;" style="rhombus;whiteSpace=wrap;html=1;" vertex="1" parent="1">
          <mxGeometry x="430" y="790" width="120" height="80" as="geometry" />
        </mxCell>
        <mxCell id="45qHpqeblWO-UKgfUNLH-22" value="" style="edgeStyle=orthogonalEdgeStyle;rounded=0;orthogonalLoop=1;jettySize=auto;html=1;" edge="1" parent="1" source="45qHpqeblWO-UKgfUNLH-19" target="45qHpqeblWO-UKgfUNLH-21">
          <mxGeometry relative="1" as="geometry" />
        </mxCell>
        <mxCell id="45qHpqeblWO-UKgfUNLH-19" value="`cur := -\frac{(2n-1)^2}{2n(2n+1)}x^2 \cdot cur`" style="whiteSpace=wrap;html=1;" vertex="1" parent="1">
          <mxGeometry x="400" y="960" width="180" height="60" as="geometry" />
        </mxCell>
        <mxCell id="45qHpqeblWO-UKgfUNLH-24" value="" style="edgeStyle=orthogonalEdgeStyle;rounded=0;orthogonalLoop=1;jettySize=auto;html=1;" edge="1" parent="1" source="45qHpqeblWO-UKgfUNLH-21" target="45qHpqeblWO-UKgfUNLH-23">
          <mxGeometry relative="1" as="geometry" />
        </mxCell>
        <mxCell id="45qHpqeblWO-UKgfUNLH-21" value="`res := res + cur`" style="whiteSpace=wrap;html=1;" vertex="1" parent="1">
          <mxGeometry x="430" y="1100" width="120" height="60" as="geometry" />
        </mxCell>
        <mxCell id="45qHpqeblWO-UKgfUNLH-26" value="" style="edgeStyle=orthogonalEdgeStyle;rounded=0;orthogonalLoop=1;jettySize=auto;html=1;" edge="1" parent="1" source="45qHpqeblWO-UKgfUNLH-23">
          <mxGeometry relative="1" as="geometry">
            <mxPoint x="490" y="1350" as="targetPoint" />
          </mxGeometry>
        </mxCell>
        <mxCell id="45qHpqeblWO-UKgfUNLH-23" value="`n := n + 1`" style="whiteSpace=wrap;html=1;" vertex="1" parent="1">
          <mxGeometry x="430" y="1240" width="120" height="60" as="geometry" />
        </mxCell>
        <mxCell id="45qHpqeblWO-UKgfUNLH-28" style="edgeStyle=orthogonalEdgeStyle;rounded=0;orthogonalLoop=1;jettySize=auto;html=1;exitX=0.5;exitY=1;exitDx=0;exitDy=0;" edge="1" parent="1" source="JC45-us7murtTZyiwUdq-1">
          <mxGeometry relative="1" as="geometry">
            <mxPoint x="490" y="760" as="targetPoint" />
            <Array as="points">
              <mxPoint x="490" y="1470" />
              <mxPoint x="610" y="1470" />
              <mxPoint x="610" y="760" />
            </Array>
            <mxPoint x="490" y="1450" as="sourcePoint" />
          </mxGeometry>
        </mxCell>
        <mxCell id="JC45-us7murtTZyiwUdq-1" value="&lt;b&gt;Вивід&lt;/b&gt;&amp;nbsp;«Сума `n` доданків&lt;div&gt;&lt;span style=&quot;background-color: initial;&quot;&gt;дорівнює `res`.»&lt;/span&gt;&lt;/div&gt;" style="shape=parallelogram;perimeter=parallelogramPerimeter;whiteSpace=wrap;html=1;fixedSize=1;" vertex="1" parent="1">
          <mxGeometry x="400" y="1350" width="180" height="80" as="geometry" />
        </mxCell>
      </root>
    </mxGraphModel>
  </diagram>
</mxfile>
